<svg version="1.1" id="Layer_1" xmlns="http://www.w3.org/2000/svg" xmlns:xlink="http://www.w3.org/1999/xlink" x="0px" y="0px"
	 width="100%" viewBox="0 0 110 110" enable-background="new 0 0 110 110" xml:space="preserve">
<path fill="#020202" opacity="1.000000" stroke="none" 
	d="
M65.000000,111.000000 
	C43.333332,111.000000 22.166666,111.000000 1.000000,111.000000 
	C1.000000,74.333336 1.000000,37.666668 1.000000,1.000000 
	C37.666668,1.000000 74.333336,1.000000 111.000000,1.000000 
	C111.000000,37.666668 111.000000,74.333336 111.000000,111.000000 
	C95.833336,111.000000 80.666664,111.000000 65.000000,111.000000 
M70.807564,102.445511 
	C89.764297,95.892113 101.636635,82.681862 104.556618,63.010197 
	C107.109604,45.810883 101.759537,30.536062 88.159157,18.839993 
	C66.591286,0.292026 32.497723,3.266588 15.021086,28.687618 
	C2.068625,47.527912 4.864789,75.075035 21.550837,90.674576 
	C35.367569,103.591644 51.684967,107.635330 70.807564,102.445511 
z"/>
<path fill="#FCFCFC" opacity="1.000000" stroke="none" 
	d="
M70.443741,102.635086 
	C51.684967,107.635330 35.367569,103.591644 21.550837,90.674576 
	C4.864789,75.075035 2.068625,47.527912 15.021086,28.687618 
	C32.497723,3.266588 66.591286,0.292026 88.159157,18.839993 
	C101.759537,30.536062 107.109604,45.810883 104.556618,63.010197 
	C101.636635,82.681862 89.764297,95.892113 70.443741,102.635086 
M79.050385,45.433281 
	C79.075188,45.177139 79.112526,44.922840 79.104630,43.843304 
	C77.743065,37.980267 73.372200,33.827198 67.515472,33.112236 
	C57.637299,31.906355 48.304688,33.711166 41.009293,40.655704 
	C37.516891,43.980141 35.598366,48.957977 32.693523,53.724480 
	C32.545227,54.517860 32.396927,55.311241 32.248631,56.104626 
	C32.467171,56.153851 32.685715,56.203075 32.904255,56.252300 
	C33.276684,55.188969 33.649113,54.125641 34.387581,52.497452 
	C44.240829,42.144032 65.739616,38.301243 77.958778,45.161381 
	C77.972336,45.462124 77.987808,45.762772 77.513802,46.572422 
	C77.745323,48.788734 77.976852,51.005047 78.257530,53.691849 
	C82.802238,52.882183 86.880302,52.155651 91.362854,51.357056 
	C88.379128,45.532070 83.335510,46.534740 79.050385,45.433281 
M71.411369,73.027000 
	C74.527649,70.424561 77.614990,67.803680 78.100639,62.671440 
	C63.076969,72.029991 46.770378,66.939209 31.359055,68.863335 
	C31.359055,71.748383 31.359055,74.466751 31.359055,77.316223 
	C40.387249,77.316223 49.070099,77.733986 57.683815,77.143425 
	C62.120918,76.839218 66.434967,74.740211 71.411369,73.027000 
M68.760529,53.898052 
	C67.023041,52.747620 65.392036,51.037907 63.503952,50.678394 
	C62.533352,50.493576 60.456211,52.513393 60.023552,53.895267 
	C59.234226,56.416306 59.954929,58.946297 63.139740,59.469887 
	C66.776817,60.067833 68.769020,58.405128 68.760529,53.898052 
z"/>
<path fill="#393939" opacity="1.000000" stroke="none" 
	d="
M71.107994,73.239609 
	C66.434967,74.740211 62.120918,76.839218 57.683815,77.143425 
	C49.070099,77.733986 40.387249,77.316223 31.359055,77.316223 
	C31.359055,74.466751 31.359055,71.748383 31.359055,68.863335 
	C46.770378,66.939209 63.076969,72.029991 78.100639,62.671440 
	C77.614990,67.803680 74.527649,70.424561 71.107994,73.239609 
z"/>
<path fill="#424242" opacity="1.000000" stroke="none" 
	d="
M32.967018,53.186974 
	C35.598366,48.957977 37.516891,43.980141 41.009293,40.655704 
	C48.304688,33.711166 57.637299,31.906355 67.515472,33.112236 
	C73.372200,33.827198 77.743065,37.980267 78.830551,44.235161 
	C78.356026,44.654675 78.155571,44.682339 77.955116,44.709999 
	C65.739616,38.301243 44.240829,42.144032 33.937363,52.780899 
	C33.313774,53.105221 33.140396,53.146099 32.967018,53.186974 
z"/>
<path fill="#474747" opacity="1.000000" stroke="none" 
	d="
M79.008896,45.817791 
	C83.335510,46.534740 88.379128,45.532070 91.362854,51.357056 
	C86.880302,52.155651 82.802238,52.882183 78.257530,53.691849 
	C77.976852,51.005047 77.745323,48.788734 78.035881,46.360573 
	C78.708275,46.038406 78.858589,45.928097 79.008896,45.817791 
z"/>
<path fill="#444444" opacity="1.000000" stroke="none" 
	d="
M68.812187,54.271576 
	C68.769020,58.405128 66.776817,60.067833 63.139740,59.469887 
	C59.954929,58.946297 59.234226,56.416306 60.023552,53.895267 
	C60.456211,52.513393 62.533352,50.493576 63.503952,50.678394 
	C65.392036,51.037907 67.023041,52.747620 68.812187,54.271576 
z"/>
<path fill="#F3F3F3" opacity="1.000000" stroke="none" 
	d="
M32.830269,53.455727 
	C33.140396,53.146099 33.313774,53.105221 33.754341,53.063332 
	C33.649113,54.125641 33.276684,55.188969 32.904255,56.252300 
	C32.685715,56.203075 32.467171,56.153851 32.248631,56.104626 
	C32.396927,55.311241 32.545227,54.517860 32.830269,53.455727 
z"/>
<path fill="#F3F3F3" opacity="1.000000" stroke="none" 
	d="
M79.029640,45.625534 
	C78.858589,45.928097 78.708275,46.038406 78.281578,46.106018 
	C77.987808,45.762772 77.972336,45.462124 77.956947,44.935692 
	C78.155571,44.682339 78.356026,44.654675 78.859444,44.648697 
	C79.112526,44.922840 79.075188,45.177139 79.029640,45.625534 
z"/>
</svg>